HIERARCHY
ROOT Hips
{
  OFFSET 150.432 88.1888 27.0678
  CHANNELS 6 Xposition Yposition Zposition Zrotation Xrotation Yrotation
  JOINT RightUpLeg
  {
    OFFSET -9.25679 -1.50405 0.000749919
    CHANNELS 3 Zrotation Xrotation Yrotation
    JOINT RightLeg
    {
      OFFSET 0.0460649 -41.9017 0.109432
      CHANNELS 3 Zrotation Xrotation Yrotation
      JOINT RightFoot
      {
        OFFSET 1.7988 -41.6468 0.413135
        CHANNELS 3 Zrotation Xrotation Yrotation
        End Site
        {
          OFFSET 0 -7.69 17.5
        }
      }
    }
  }
  JOINT LeftUpLeg
  {
    OFFSET 9.37007 -1.70178 -0.0772456
    CHANNELS 3 Zrotation Xrotation Yrotation
    JOINT LeftLeg
    {
      OFFSET 0.225295 -41.8622 -0.102498
      CHANNELS 3 Zrotation Xrotation Yrotation
      JOINT LeftFoot
      {
        OFFSET -2.07126 -41.2817 -1.22305
        CHANNELS 3 Zrotation Xrotation Yrotation
        End Site
        {
          OFFSET 0 -7.69 17.5
        }
      }
    }
  }
  JOINT Spine
  {
    OFFSET 0.0614897 14.2979 0.0172263
    CHANNELS 3 Zrotation Xrotation Yrotation
    JOINT Spine1
    {
      OFFSET 0.0253415 9.71429 0.00919728
      CHANNELS 3 Zrotation Xrotation Yrotation
      JOINT Spine2
      {
        OFFSET -0.0163533 10.1275 0.00641818
        CHANNELS 3 Zrotation Xrotation Yrotation
        JOINT Spine3
        {
          OFFSET 0.00964153 9.71178 0.018187
          CHANNELS 3 Zrotation Xrotation Yrotation
          JOINT Neck
          {
            OFFSET -0.0402277 10.3749 0.0917408
            CHANNELS 3 Zrotation Xrotation Yrotation
            JOINT Head
            {
              OFFSET 0.0121048 9.49481 0.108971
              CHANNELS 3 Zrotation Xrotation Yrotation
              End Site
              {
                OFFSET 0 15.95 0
              }
            }
          }
          JOINT RightShoulder
          {
            OFFSET -3.18208 6.946 0.015457
            CHANNELS 3 Zrotation Xrotation Yrotation
            JOINT RightArm
            {
              OFFSET -12.7708 0.0386499 -0.00729584
              CHANNELS 3 Zrotation Xrotation Yrotation
              JOINT RightForeArm
              {
                OFFSET -26.422 0.00272702 0.0331834
                CHANNELS 3 Zrotation Xrotation Yrotation
                JOINT RightHand
                {
                  OFFSET -25.9963 -0.0318335 0.00677283
                  CHANNELS 3 Zrotation Xrotation Yrotation
                  JOINT RightHandThumb1
                  {
                    OFFSET -2.48905 0.190105 3.12053
                    CHANNELS 3 Zrotation Xrotation Yrotation
                    JOINT RightHandThumb2
                    {
                      OFFSET -3.68274 0 0
                      CHANNELS 3 Zrotation Xrotation Yrotation
                      JOINT RightHandThumb3
                      {
                        OFFSET -2.55832 0 0
                        CHANNELS 3 Zrotation Xrotation Yrotation
                        End Site
                        {
                          OFFSET -2.194 0 0
                        }
                      }
                    }
                  }
                  JOINT RightInHandIndex
                  {
                    OFFSET -3.22368 0.508421 1.97842
                    CHANNELS 3 Zrotation Xrotation Yrotation
                    JOINT RightHandIndex1
                    {
                      OFFSET -5.21684 -0.091368 0.999158
                      CHANNELS 3 Zrotation Xrotation Yrotation
                      JOINT RightHandIndex2
                      {
                        OFFSET -3.61937 0 0
                        CHANNELS 3 Zrotation Xrotation Yrotation
                        JOINT RightHandIndex3
                        {
                          OFFSET -2.0521 0 0
                          CHANNELS 3 Zrotation Xrotation Yrotation
                          End Site
                          {
                            OFFSET -1.805 0 0
                          }
                        }
                      }
                    }
                  }
                  JOINT RightInHandMiddle
                  {
                    OFFSET -3.38211 0.517263 0.756737
                    CHANNELS 3 Zrotation Xrotation Yrotation
                    JOINT RightHandMiddle1
                    {
                      OFFSET -5.17411 -0.084 0.313895
                      CHANNELS 3 Zrotation Xrotation Yrotation
                      JOINT RightHandMiddle2
                      {
                        OFFSET -3.94947 0 0
                        CHANNELS 3 Zrotation Xrotation Yrotation
                        JOINT RightHandMiddle3
                        {
                          OFFSET -2.47579 0 0
                          CHANNELS 3 Zrotation Xrotation Yrotation
                          End Site
                          {
                            OFFSET -1.975 0 0
                          }
                        }
                      }
                    }
                  }
                  JOINT RightInHandRing
                  {
                    OFFSET -3.36516 0.537895 -0.128947
                    CHANNELS 3 Zrotation Xrotation Yrotation
                    JOINT RightHandRing1
                    {
                      OFFSET -4.63474 -0.022105 -0.478947
                      CHANNELS 3 Zrotation Xrotation Yrotation
                      JOINT RightHandRing2
                      {
                        OFFSET -3.44238 0 0
                        CHANNELS 3 Zrotation Xrotation Yrotation
                        JOINT RightHandRing3
                        {
                          OFFSET -2.3881 0 0
                          CHANNELS 3 Zrotation Xrotation Yrotation
                          End Site
                          {
                            OFFSET -1.857 0 0
                          }
                        }
                      }
                    }
                  }
                  JOINT RightInHandPinky
                  {
                    OFFSET -3.16105 0.469368 -1.20179
                    CHANNELS 3 Zrotation Xrotation Yrotation
                    JOINT RightHandPinky1
                    {
                      OFFSET -4.14105 -0.022105 -1.09053
                      CHANNELS 3 Zrotation Xrotation Yrotation
                      JOINT RightHandPinky2
                      {
                        OFFSET -2.75653 0 0
                        CHANNELS 3 Zrotation Xrotation Yrotation
                        JOINT RightHandPinky3
                        {
                          OFFSET -1.74189 0 0
                          CHANNELS 3 Zrotation Xrotation Yrotation
                          End Site
                          {
                            OFFSET -1.645 0 0
                          }
                        }
                      }
                    }
                  }
                }
              }
            }
          }
          JOINT LeftShoulder
          {
            OFFSET 3.18966 6.92856 0.062398
            CHANNELS 3 Zrotation Xrotation Yrotation
            JOINT LeftArm
            {
              OFFSET 12.7601 -0.0509086 0.00275124
              CHANNELS 3 Zrotation Xrotation Yrotation
              JOINT LeftForeArm
              {
                OFFSET 26.4828 -0.0571091 -0.0285564
                CHANNELS 3 Zrotation Xrotation Yrotation
                JOINT LeftHand
                {
                  OFFSET 25.9994 -0.0171136 -0.0547064
                  CHANNELS 3 Zrotation Xrotation Yrotation
                  JOINT LeftHandThumb1
                  {
                    OFFSET 2.48905 0.190105 3.12053
                    CHANNELS 3 Zrotation Xrotation Yrotation
                    JOINT LeftHandThumb2
                    {
                      OFFSET 3.68274 0 0
                      CHANNELS 3 Zrotation Xrotation Yrotation
                      JOINT LeftHandThumb3
                      {
                        OFFSET 2.55832 0 0
                        CHANNELS 3 Zrotation Xrotation Yrotation
                        End Site
                        {
                          OFFSET 2.194 0 0
                        }
                      }
                    }
                  }
                  JOINT LeftInHandIndex
                  {
                    OFFSET 3.22368 0.508421 1.97842
                    CHANNELS 3 Zrotation Xrotation Yrotation
                    JOINT LeftHandIndex1
                    {
                      OFFSET 5.21684 -0.091368 0.999158
                      CHANNELS 3 Zrotation Xrotation Yrotation
                      JOINT LeftHandIndex2
                      {
                        OFFSET 3.61937 0 0
                        CHANNELS 3 Zrotation Xrotation Yrotation
                        JOINT LeftHandIndex3
                        {
                          OFFSET 2.0521 0 0
                          CHANNELS 3 Zrotation Xrotation Yrotation
                          End Site
                          {
                            OFFSET 1.805 0 0
                          }
                        }
                      }
                    }
                  }
                  JOINT LeftInHandMiddle
                  {
                    OFFSET 3.38211 0.517263 0.756737
                    CHANNELS 3 Zrotation Xrotation Yrotation
                    JOINT LeftHandMiddle1
                    {
                      OFFSET 5.17411 -0.084 0.313895
                      CHANNELS 3 Zrotation Xrotation Yrotation
                      JOINT LeftHandMiddle2
                      {
                        OFFSET 3.94947 0 0
                        CHANNELS 3 Zrotation Xrotation Yrotation
                        JOINT LeftHandMiddle3
                        {
                          OFFSET 2.47579 0 0
                          CHANNELS 3 Zrotation Xrotation Yrotation
                          End Site
                          {
                            OFFSET 1.975 0 0
                          }
                        }
                      }
                    }
                  }
                  JOINT LeftInHandRing
                  {
                    OFFSET 3.36516 0.537895 -0.128947
                    CHANNELS 3 Zrotation Xrotation Yrotation
                    JOINT LeftHandRing1
                    {
                      OFFSET 4.63474 -0.022105 -0.478947
                      CHANNELS 3 Zrotation Xrotation Yrotation
                      JOINT LeftHandRing2
                      {
                        OFFSET 3.44238 0 0
                        CHANNELS 3 Zrotation Xrotation Yrotation
                        JOINT LeftHandRing3
                        {
                          OFFSET 2.3881 0 0
                          CHANNELS 3 Zrotation Xrotation Yrotation
                          End Site
                          {
                            OFFSET 1.857 0 0
                          }
                        }
                      }
                    }
                  }
                  JOINT LeftInHandPinky
                  {
                    OFFSET 3.16105 0.469368 -1.20179
                    CHANNELS 3 Zrotation Xrotation Yrotation
                    JOINT LeftHandPinky1
                    {
                      OFFSET 4.14105 -0.022105 -1.09053
                      CHANNELS 3 Zrotation Xrotation Yrotation
                      JOINT LeftHandPinky2
                      {
                        OFFSET 2.75653 0 0
                        CHANNELS 3 Zrotation Xrotation Yrotation
                        JOINT LeftHandPinky3
                        {
                          OFFSET 1.74189 0 0
                          CHANNELS 3 Zrotation Xrotation Yrotation
                          End Site
                          {
                            OFFSET 1.645 0 0
                          }
                        }
                      }
                    }
                  }
                }
              }
            }
          }
        }
      }
    }
  }
}
MOTION
Frames: 3
Frame Time: 0.00833333
6.002573602159930033e+02 8.387816652586496322e-03 5.421439594172328125e-01 1.371187344346952219e+00 3.342648315441176243e-01 1.075750565713538442e+00 -5.717388603492735699e-01 -4.291980775748841515e-01 -1.365482749640886784e+00 1.254124935417809950e-01 -1.879775243775529819e-02 -9.456350991279721674e-02 1.949931009374945012e-01 -2.123824491620986965e-01 -1.363932245816979472e-01 1.038886153125243350e+00 -7.457650456570886766e-01 3.447133468623314601e-02 2.298183684049346920e-01 4.766746640431135384e-02 -1.584998538077425634e-01 2.929055294689959510e-01 1.901275210392254222e-01 -1.759473145273198758e-01 9.464485304394418819e-01 2.927655155205898252e-01 -2.282429159101199367e+00 2.543669874239016804e-01 -3.498180631309954491e-01 -6.188604286001515575e-01 3.241490342259693014e-01 1.670394899458930993e-01 -8.223530779410601621e-01 -6.196073329457662399e-02 7.623993651713503739e-02 1.604202748509183374e-01 8.611664439986846387e-02 1.059004501952215266e-01 1.206048942791163592e-01 -1.524898643918134011e+00 1.169847223125328961e+00 3.109704724480308879e+00 -1.417271246510724558e-01 1.217769827208150524e+00 -1.693979215434412211e+00 9.070855072221528204e+00 4.496817216392787309e+00 -2.571634423638819555e+00 6.323172675555713274e-02 -1.274329328388794735e+01 -3.107017553027842638e+01 -8.252422847659346417e-01 -3.172069312852986656e+00 -2.523126892822841749e-01 0.000000000000000000e+00 0.000000000000000000e+00 0.000000000000000000e+00 3.600575003013990544e-15 -3.157701554725827183e-15 0.000000000000000000e+00 8.486030701669119465e-15 4.474754058077301079e-15 0.000000000000000000e+00 8.184376947503271641e-16 7.866018607636576499e-16 -1.812693893354968599e-15 0.000000000000000000e+00 0.000000000000000000e+00 0.000000000000000000e+00 0.000000000000000000e+00 7.207649287663557503e-16 -7.648942027241967573e-15 0.000000000000000000e+00 -3.272674728858505968e-15 -1.470427371400117383e-14 8.184376947503271641e-16 7.866018607636576499e-16 -1.812693893354968599e-15 0.000000000000000000e+00 2.062279973502743146e-16 1.407991063874913988e-15 0.000000000000000000e+00 -2.222549009387978414e-16 -9.868810757450697852e-17 0.000000000000000000e+00 -1.820999980063043063e-16 -7.622601284322360019e-15 8.184376947503271641e-16 7.866018607636576499e-16 -1.812693893354968599e-15 0.000000000000000000e+00 0.000000000000000000e+00 0.000000000000000000e+00 0.000000000000000000e+00 -1.840854584735525988e-15 -1.842631589591254321e-15 0.000000000000000000e+00 -1.036914949522692627e-15 -1.024628492197109087e-14 8.184376947503271641e-16 7.866018607636576499e-16 -1.812693893354968599e-15 0.000000000000000000e+00 0.000000000000000000e+00 0.000000000000000000e+00 0.000000000000000000e+00 -1.761745323867534886e-15 -9.545585090998193688e-15 0.000000000000000000e+00 -8.436937824136120576e-16 -1.012612499441043972e-14 6.971146819530205097e-01 1.900421538517149678e+00 -1.041219220480847474e+00 4.980174096170582487e+00 2.837498568018518075e+00 -4.753912698309073370e+00 2.328776952454876792e+01 -4.314915232850832894e+00 2.595077070319381463e+01 -1.471251122092545716e+00 7.141924632273551232e+00 -4.376405568030553583e-01 0.000000000000000000e+00 0.000000000000000000e+00 0.000000000000000000e+00 1.564195341494087869e-15 -4.502761829252694207e-15 0.000000000000000000e+00 -2.172652281295001060e-15 -2.486273993762235173e-15 0.000000000000000000e+00 -2.411692395927750034e-15 -1.313283709190216172e-15 -1.585160525876745936e-15 0.000000000000000000e+00 0.000000000000000000e+00 0.000000000000000000e+00 0.000000000000000000e+00 -1.697488831337432917e-15 2.318571116618187931e-15 0.000000000000000000e+00 -8.316999477860567365e-16 4.316363966071119941e-15 -2.411692395927750034e-15 -1.313283709190216172e-15 -1.585160525876745936e-15 0.000000000000000000e+00 7.774563167699270683e-16 -3.060755587156244855e-15 0.000000000000000000e+00 1.271696741973429953e-15 5.925341554379538095e-16 0.000000000000000000e+00 4.120451502145973677e-15 2.047008447098581413e-15 -2.411692395927750034e-15 -1.313283709190216172e-15 -1.585160525876745936e-15 0.000000000000000000e+00 0.000000000000000000e+00 0.000000000000000000e+00 0.000000000000000000e+00 1.969123467165798391e-15 9.187879940249873001e-16 0.000000000000000000e+00 -4.391354894601293685e-15 1.077796231310771053e-15 -2.411692395927750034e-15 -1.313283709190216172e-15 -1.585160525876745936e-15 0.000000000000000000e+00 0.000000000000000000e+00 0.000000000000000000e+00 0.000000000000000000e+00 -2.890393003975651757e-15 1.702448546553072422e-15 0.000000000000000000e+00 -2.009223311485819252e-15 2.806590185075882977e-15
6.002443788636735462e+02 9.340029472849502301e-03 5.971468107508750567e-01 1.397103959814984586e+00 3.252949189931583773e-01 1.023016367460940712e+00 -4.022483115639120532e-01 -5.133816238518922326e-01 -1.186193291430630126e+00 1.064166116428119369e-01 -3.854234366687692148e-02 -7.909205169649505263e-02 2.259121879408745592e-01 -1.957937400805531691e-01 -1.331861846830289520e-01 1.165615202574985076e+00 -8.178128467825784842e-01 1.695551193942968771e-01 2.738367135866710544e-01 9.607964839701089999e-02 -1.808625124620305002e-01 3.297070159266790590e-01 1.808299519292708712e-01 -1.515219193971621692e-01 1.000815020810808864e+00 3.495819133947510871e-01 -2.279327714394229432e+00 2.634840473388371240e-01 -3.061456396671944358e-01 -6.191823147610150402e-01 3.382345913230491163e-01 1.990246341912721428e-01 -8.237064891692610358e-01 -6.992654155298407004e-02 7.938415792417100048e-02 1.669922821188396522e-01 9.175277439277940150e-02 1.044902615780953503e-01 -8.756918857103673792e-02 -1.696877277661984040e+00 1.142720805039592724e+00 3.401285648768558101e+00 -1.360500487913288148e-01 1.283014137383554631e+00 -1.682764808880858443e+00 9.951384756680385024e+00 4.917718447977094343e+00 -2.233709795460083303e+00 1.231592091527422550e-01 -1.315119673246501009e+01 -2.397909091222818745e+01 -9.415295769891643962e-01 -3.402530694087309904e+00 -2.287590450992898483e-01 0.000000000000000000e+00 0.000000000000000000e+00 0.000000000000000000e+00 3.786240562117819045e-15 -3.349167111886396452e-15 0.000000000000000000e+00 8.803456516940101940e-15 4.566476776764271431e-15 0.000000000000000000e+00 7.542876759495015820e-16 4.371257961659072627e-16 -2.004023167855254430e-15 0.000000000000000000e+00 0.000000000000000000e+00 0.000000000000000000e+00 0.000000000000000000e+00 9.138015786812226592e-16 -8.215478691601160616e-15 0.000000000000000000e+00 -3.216006276571148085e-15 -1.503895315177357603e-14 7.542876759495015820e-16 4.371257961659072627e-16 -2.004023167855254430e-15 0.000000000000000000e+00 4.311444887706088147e-16 1.442626702646320817e-15 0.000000000000000000e+00 -2.589366973727302362e-16 -3.767410828310457615e-16 0.000000000000000000e+00 -3.264890194989214548e-16 -7.576306668060804818e-15 7.542876759495015820e-16 4.371257961659072627e-16 -2.004023167855254430e-15 0.000000000000000000e+00 0.000000000000000000e+00 0.000000000000000000e+00 0.000000000000000000e+00 -2.011832147510307851e-15 -2.134222182265574795e-15 0.000000000000000000e+00 -8.001099049176363308e-16 -1.037589237114567870e-14 7.542876759495015820e-16 4.371257961659072627e-16 -2.004023167855254430e-15 0.000000000000000000e+00 0.000000000000000000e+00 0.000000000000000000e+00 0.000000000000000000e+00 -1.795361448617598754e-15 -9.390274635083447474e-15 0.000000000000000000e+00 -8.520775483348765236e-16 -1.116074764253092394e-14 7.136396708991123994e-01 1.946590013654048379e+00 -1.103300514897048057e+00 5.038629723421587769e+00 3.221574097640844681e+00 -4.732235104872498432e+00 2.322823079696800619e+01 -4.337530522592992988e+00 2.502717865405522701e+01 -1.336586751148458152e+00 8.461269430256281865e+00 4.654424097473552902e-01 0.000000000000000000e+00 0.000000000000000000e+00 0.000000000000000000e+00 1.591581356687651226e-15 -4.719830543089251013e-15 0.000000000000000000e+00 -2.424940596411180067e-15 -2.145095745927874827e-15 0.000000000000000000e+00 -2.640415448013852605e-15 -1.177587423367292357e-15 -1.443306541934542737e-15 0.000000000000000000e+00 0.000000000000000000e+00 0.000000000000000000e+00 0.000000000000000000e+00 -1.839510639885384890e-15 2.929356155607991112e-15 0.000000000000000000e+00 -1.116439731199025487e-15 4.165302882636349808e-15 -2.640415448013852605e-15 -1.177587423367292357e-15 -1.443306541934542737e-15 0.000000000000000000e+00 5.867238469739931631e-16 -2.705733994580010020e-15 0.000000000000000000e+00 1.335580187604956037e-15 6.841289391642656988e-16 0.000000000000000000e+00 4.310793064947099996e-15 2.429301587752756519e-15 -2.640415448013852605e-15 -1.177587423367292357e-15 -1.443306541934542737e-15 0.000000000000000000e+00 0.000000000000000000e+00 0.000000000000000000e+00 0.000000000000000000e+00 1.649834478807379190e-15 1.061432426880214203e-15 0.000000000000000000e+00 -4.206304717832047405e-15 1.247329909414988555e-15 -2.640415448013852605e-15 -1.177587423367292357e-15 -1.443306541934542737e-15 0.000000000000000000e+00 0.000000000000000000e+00 0.000000000000000000e+00 0.000000000000000000e+00 -3.077875210806183409e-15 1.892770623442773264e-15 0.000000000000000000e+00 -2.012414187584236078e-15 2.622927352448565764e-15
6.002316098615432338e+02 1.041857607336033921e-02 6.505019979403349195e-01 1.419781448771880061e+00 3.156206523827030375e-01 9.661076772896517451e-01 -2.282648136284614049e-01 -5.979629061252023092e-01 -1.000376209790791560e+00 8.639108333444067700e-02 -5.864119866456334040e-02 -6.291198781941489959e-02 2.563319167005566057e-01 -1.779185413245983893e-01 -1.297744797123150939e-01 1.291877179183359203e+00 -8.879489553802983881e-01 3.071894540772635018e-01 3.182213323044019715e-01 1.441267233040197104e-01 -2.037783499048809732e-01 3.658001764678502354e-01 1.712752196398740767e-01 -1.261355840419876029e-01 1.052223732419633517e+00 4.066253104240629135e-01 -2.268023238843808187e+00 2.717547209571474220e-01 -2.601952920314492546e-01 -6.172843884531772352e-01 3.512537497058502156e-01 2.311649240688331830e-01 -8.220799125874852509e-01 -7.773394730474365855e-02 8.243491211837065957e-02 1.730370880095469799e-01 9.672270621274427216e-02 1.026124188866795045e-01 -2.943375622194369101e-01 -1.865327128879334051e+00 1.113136328132381836e+00 3.681549383592860547e+00 -1.294489119829969614e-01 1.346511410681334064e+00 -1.665561503896378692e+00 1.081477972726466241e+01 5.334409176329774738e+00 -1.875968158973550404e+00 1.824550743614455905e-01 -1.353425013146954825e+01 -1.681802851695699275e+01 -1.052006942554082114e+00 -3.627859721764673750e+00 -2.044737982907971485e-01 0.000000000000000000e+00 0.000000000000000000e+00 0.000000000000000000e+00 3.959341680613653966e-15 -3.528080010232659860e-15 0.000000000000000000e+00 9.081497146025637776e-15 4.642515551661465276e-15 0.000000000000000000e+00 6.864784931208148360e-16 8.258105504614225934e-17 -2.191115347531474411e-15 0.000000000000000000e+00 0.000000000000000000e+00 0.000000000000000000e+00 0.000000000000000000e+00 1.106491793061410250e-15 -8.762775736511403803e-15 0.000000000000000000e+00 -3.144507888078121327e-15 -1.531504771430728927e-14 6.864784931208148360e-16 8.258105504614225934e-17 -2.191115347531474411e-15 0.000000000000000000e+00 6.532658420776927040e-16 1.468217309640511662e-15 0.000000000000000000e+00 -2.938403987898139926e-16 -6.618440367300003499e-16 0.000000000000000000e+00 -4.680285107378294012e-16 -7.490893546909405359e-15 6.864784931208148360e-16 8.258105504614225934e-17 -2.191115347531474411e-15 0.000000000000000000e+00 0.000000000000000000e+00 0.000000000000000000e+00 0.000000000000000000e+00 -2.175845498342350474e-15 -2.417778688374437575e-15 0.000000000000000000e+00 -5.567856985116394717e-16 -1.046173032791633400e-14 6.864784931208148360e-16 8.258105504614225934e-17 -2.191115347531474411e-15 0.000000000000000000e+00 0.000000000000000000e+00 0.000000000000000000e+00 0.000000000000000000e+00 -1.825950428259771996e-15 -9.204434090697843330e-15 0.000000000000000000e+00 -8.574546242990282727e-16 -1.216978179443799260e-14 7.288669520742203645e-01 1.989229591088807370e+00 -1.163868040712525476e+00 5.074887237544536411e+00 3.605370229960924267e+00 -4.684922811070762805e+00 2.308383794343199824e+01 -4.354549669191473349e+00 2.399618723828131550e+01 -1.185737762641472015e+00 9.783102773986174228e+00 1.399815864537425458e+00 0.000000000000000000e+00 0.000000000000000000e+00 0.000000000000000000e+00 1.613407541642100128e-15 -4.919374623995490614e-15 0.000000000000000000e+00 -2.671057642118967650e-15 -1.790994284770496654e-15 0.000000000000000000e+00 -2.863550369249726315e-15 -1.036663913928346711e-15 -1.294953293391530233e-15 0.000000000000000000e+00 0.000000000000000000e+00 0.000000000000000000e+00 0.000000000000000000e+00 -1.976563756743203558e-15 3.541010516569734033e-15 0.000000000000000000e+00 -1.402005812134605981e-15 4.003318126650034402e-15 -2.863550369249726315e-15 -1.036663913928346711e-15 -1.294953293391530233e-15 0.000000000000000000e+00 3.946980282498272732e-16 -2.334029525872893397e-15 0.000000000000000000e+00 1.396042645475206672e-15 7.805574933711088887e-16 0.000000000000000000e+00 4.489805440077794616e-15 2.814280867848033095e-15 -2.863550369249726315e-15 -1.036663913928346711e-15 -1.294953293391530233e-15 0.000000000000000000e+00 0.000000000000000000e+00 0.000000000000000000e+00 0.000000000000000000e+00 1.319613718639296270e-15 1.206516911623831218e-15 0.000000000000000000e+00 -4.007261550869757088e-15 1.421121658147480074e-15 -2.863550369249726315e-15 -1.036663913928346711e-15 -1.294953293391530233e-15 0.000000000000000000e+00 0.000000000000000000e+00 0.000000000000000000e+00 0.000000000000000000e+00 -3.258435211627682961e-15 2.082769183015006135e-15 0.000000000000000000e+00 -2.010647219968859075e-15 2.432766155198005063e-15
